# xmcd CD database file
#
# Track frame offsets:
#	150
#	12397
#	27244
#	42507
#	56314
#	68977
#	83123
#	97788
#	110269
#	124934
#	139730
#	154344
#	167996
#	181023
#	196209
#	210433
#	224136
#	238437
#	251100
#	265687
#	279729
#	292470
#	306667
#	322061
#
# Disc length: 4470 seconds
#
# Revision: 0
# Processed by: cddbd v1.5.1PL2 Copyright (c) Steve Scherf et al.
# Submitted via: CDex 1.51
#
DISCID=7a117418
DTITLE=Duke Ellington - The Okeh Ellington [CD 2)
DYEAR=1991
DGENRE=Jazz
TTITLE0=That Rhytm Man
TTITLE1=Beggar's Blues
TTITLE2=Saturday Night Function
TTITLE3=Jungle Jamboree
TTITLE4=Snake Hip Dance
TTITLE5=Lazy Duke
TTITLE6=Blues of the Vagabond
TTITLE7=Syncopated Shuffle
TTITLE8=Rockin' in Rythm
TTITLE9=Ragamuffin Romeo
TTITLE10=East St. Louis Toddle-Do
TTITLE11=Sweet Mama
TTITLE12=Hot and Bothered
TTITLE13=Double Check Stomp
TTITLE14=Black and Tan Fantasy
TTITLE15=Big House Blues
TTITLE16=Rocky Mountain Blues
TTITLE17=Ring Dem Bells
TTITLE18=Three Little Words
TTITLE19=Old Man Blues
TTITLE20=Sweet Chariot
TTITLE21=Mood Indigo
TTITLE22=I Can't Realize You Love Me
TTITLE23=I'm so in Love with You
EXTD=YEAR: 1991
EXTT0=
EXTT1=
EXTT2=
EXTT3=
EXTT4=
EXTT5=
EXTT6=
EXTT7=
EXTT8=
EXTT9=
EXTT10=
EXTT11=
EXTT12=
EXTT13=
EXTT14=
EXTT15=
EXTT16=
EXTT17=
EXTT18=
EXTT19=
EXTT20=
EXTT21=
EXTT22=
EXTT23=
PLAYORDER=
